<svg width="16" height="10" viewBox="0 0 16 10" fill="none" xmlns="http://www.w3.org/2000/svg">
<path d="M5.5 8.46875C5.5 8.31128 5.56585 8.16025 5.68306 8.0489C5.80027 7.93756 5.95924 7.875 6.125 7.875H9.875C10.0408 7.875 10.1997 7.93756 10.3169 8.0489C10.4342 8.16025 10.5 8.31128 10.5 8.46875C10.5 8.62622 10.4342 8.77725 10.3169 8.8886C10.1997 8.99994 10.0408 9.0625 9.875 9.0625H6.125C5.95924 9.0625 5.80027 8.99994 5.68306 8.8886C5.56585 8.77725 5.5 8.62622 5.5 8.46875ZM3 4.90625C3 4.74878 3.06585 4.59776 3.18306 4.48641C3.30027 4.37506 3.45924 4.3125 3.625 4.3125H12.375C12.5408 4.3125 12.6997 4.37506 12.8169 4.48641C12.9342 4.59776 13 4.74878 13 4.90625C13 5.06372 12.9342 5.21475 12.8169 5.32609C12.6997 5.43744 12.5408 5.5 12.375 5.5H3.625C3.45924 5.5 3.30027 5.43744 3.18306 5.32609C3.06585 5.21475 3 5.06372 3 4.90625ZM0.5 1.34375C0.5 1.18628 0.565848 1.03526 0.683058 0.923905C0.800269 0.812556 0.95924 0.75 1.125 0.75H14.875C15.0408 0.75 15.1997 0.812556 15.3169 0.923905C15.4342 1.03526 15.5 1.18628 15.5 1.34375C15.5 1.50122 15.4342 1.65224 15.3169 1.76359C15.1997 1.87494 15.0408 1.9375 14.875 1.9375H1.125C0.95924 1.9375 0.800269 1.87494 0.683058 1.76359C0.565848 1.65224 0.5 1.50122 0.5 1.34375Z" fill="black"/>
</svg>
